<svg width="22" height="22" viewBox="0 0 22 22" fill="none" xmlns="http://www.w3.org/2000/svg">
<path fill-rule="evenodd" clip-rule="evenodd" d="M21.9577 11.4017C21.9577 10.6345 21.8876 9.89616 21.7571 9.18811H11.3662V13.3745H17.3038C17.0481 14.7273 16.2706 15.8733 15.1024 16.6409V19.3562H18.668C20.7544 17.4719 21.9577 14.6975 21.9577 11.4017Z" fill="#4285F4"/>
<path fill-rule="evenodd" clip-rule="evenodd" d="M11.3662 21.9784C14.345 21.9784 16.8424 21.0094 18.668 19.3562L15.1024 16.641C14.1146 17.2903 12.8505 17.6741 11.3662 17.6741C8.49249 17.6741 6.06059 15.7706 5.19293 13.2122H1.50674V16.0164C3.32202 19.5534 7.05308 21.9784 11.3662 21.9784Z" fill="#34A853"/>
<path fill-rule="evenodd" clip-rule="evenodd" d="M5.19293 13.2122C4.97227 12.5628 4.84698 11.869 4.84698 11.1559C4.84698 10.4428 4.97227 9.74897 5.19293 9.09962V6.29541H1.50674C0.759687 7.75644 0.333333 9.40962 0.333333 11.1559C0.333333 12.9022 0.759687 14.5553 1.50674 16.0164L5.19293 13.2122Z" fill="#FBBC05"/>
<path fill-rule="evenodd" clip-rule="evenodd" d="M11.3662 4.6376C12.986 4.6376 14.4404 5.18377 15.5839 6.25592L18.7484 3.1518C16.8372 1.40599 14.3399 0.333374 11.3662 0.333374C7.05355 0.333374 3.32202 2.7588 1.50674 6.29536L5.19293 9.09957C6.06059 6.54162 8.49296 4.6376 11.3662 4.6376Z" fill="#EA4335"/>
</svg>
